<svg xmlns="http://www.w3.org/2000/svg" xmlns:xlink="http://www.w3.org/1999/xlink" version="1.1" x="0px" y="0px" viewBox="0 0 100 125" enable-background="new 0 0 100 100" xml:space="preserve"><g><path d="M43.3095703,39.0566406c1.7324219,0,3.140625-1.4086914,3.140625-3.1401367   c0-1.7319336-1.4082031-3.140625-3.140625-3.140625c-1.7304688,0-3.1396484,1.4086914-3.1396484,3.140625   C40.1699219,37.6479492,41.5791016,39.0566406,43.3095703,39.0566406z"/><path d="M75.1669922,14.8330078H24.8330078c-5.5,0-10,4.5-10,10v50.3339844c0,5.5,4.5,10,10,10h50.3339844c5.5,0,10-4.5,10-10   V24.8330078C85.1669922,19.3330078,80.6669922,14.8330078,75.1669922,14.8330078z M43.3095703,29.7758789   c3.3867188,0,6.140625,2.7548828,6.140625,6.140625s-2.7539063,6.1401367-6.140625,6.1401367   c-3.3847656,0-6.1396484-2.7543945-6.1396484-6.1401367S39.9248047,29.7758789,43.3095703,29.7758789z M53.4882813,65.2382813   c-1.203125,6.2890625-6.7304688,10.8535156-13.1435547,10.8535156c-7.3789063,0-13.3837891-5.9970703-13.3837891-13.3681641   c0-5.3720703,3.1923828-10.2060547,8.1337891-12.3144531c0.7617188-0.3227539,1.6425781,0.0292969,1.96875,0.7910156   c0.3242188,0.7617188-0.0292969,1.6435547-0.7910156,1.96875c-3.8339844,1.6357422-6.3115234,5.3857422-6.3115234,9.5546875   c0,5.7167969,4.6582031,10.3681641,10.3837891,10.3681641c4.9755859,0,9.2636719-3.5400391,10.1962891-8.4179688   c0.15625-0.8134766,0.9404297-1.3427734,1.7558594-1.1914063C53.1103516,63.6386719,53.6435547,64.4238281,53.4882813,65.2382813z    M59.3691406,73.8691406c-0.1474609,0.0458984-0.2978516,0.0673828-0.4443359,0.0673828   c-0.640625,0-1.2333984-0.4121094-1.4326172-1.0556641l-3.3632813-10.8378906H39.9345703c-0.8291016,0-1.5-0.671875-1.5-1.5   V45.5302734c0-0.8286133,0.6708984-1.5,1.5-1.5h6.6191406c0.671875-0.09375,1.3251953,0.2773438,1.5859375,0.9121094   c0.0019531,0.0024414,0.0029297,0.0053711,0.0039063,0.0083008c0.015625,0.0390625,0.0371094,0.074707,0.0488281,0.1157227   l2.9804688,9.6015625c0.2460938,0.7910156-0.1962891,1.6308594-0.9873047,1.8769531   c-0.1484375,0.0458984-0.2978516,0.0673828-0.4453125,0.0673828c-0.6396484,0-1.2324219-0.4121094-1.4326172-1.0556641   l-2.6464844-8.5263672h-4.2265625v12.0126953h13.7910156c0.359375,0,0.6845703,0.1318359,0.9433594,0.3427734   c0.0078125,0.0058594,0.0146484,0.0126953,0.0224609,0.0185547c0.0556641,0.046875,0.1074219,0.0966797,0.1552734,0.1513672   c0.0273438,0.0302734,0.0537109,0.0625,0.078125,0.0957031c0.0263672,0.0341797,0.0498047,0.0683594,0.0732422,0.1054688   c0.0361328,0.0566406,0.0683594,0.1162109,0.0966797,0.1787109c0.0078125,0.0166016,0.0136719,0.0322266,0.0205078,0.0478516   c0.0185547,0.0449219,0.0419922,0.0869141,0.0566406,0.1337891l3.6855469,11.875   C60.6025391,72.7832031,60.1601563,73.6240234,59.3691406,73.8691406z M72.6005859,40.8110352l-5.4433594,5.440918   c-0.2929688,0.2924805-0.6767578,0.4389648-1.0605469,0.4389648s-0.7675781-0.1464844-1.0605469-0.4394531l-5.4492188-5.4501953   c-0.5859375-0.5859375-0.5859375-1.5356445,0-2.1210938c0.5859375-0.5859375,1.5351563-0.5859375,2.1210938,0l4.3886719,4.3896484   l4.3828125-4.3808594c0.5859375-0.5849609,1.5351563-0.5854492,2.1210938,0.0004883S73.1865234,40.2250977,72.6005859,40.8110352z    M72.6005859,31.8945313c-0.5859375,0.5859375-1.5351563,0.5859375-2.1210938,0l-4.3828125-4.3828125l-4.3886719,4.3891602   c-0.2929688,0.2929688-0.6767578,0.4394531-1.0605469,0.4394531s-0.7675781-0.1464844-1.0605469-0.4394531   c-0.5859375-0.5854492-0.5859375-1.5351563,0-2.1210938l5.4492188-5.4501953c0.5625-0.5625,1.5585938-0.5625,2.1210938,0   l5.4433594,5.4438477C73.1865234,30.359375,73.1865234,31.309082,72.6005859,31.8945313z"/></g><text x="0" y="115" fill="#000000" font-size="5px" font-weight="bold" font-family="'Helvetica Neue', Helvetica, Arial-Unicode, Arial, Sans-serif">Created by Ariyanto Deni</text><text x="0" y="120" fill="#000000" font-size="5px" font-weight="bold" font-family="'Helvetica Neue', Helvetica, Arial-Unicode, Arial, Sans-serif">from the Noun Project</text></svg>