<svg xmlns="http://www.w3.org/2000/svg" viewBox="0 0 100 100" fill="currentColor">
  <path d="M55.71,69.68c-.31,0-.56-.25-.56-.56V30.58c0-.31,.25-.56,.56-.56s.56,.25,.56,.56v38.53c0,.31-.25,.56-.56,.56Z"/>
  <path d="M26.89,69.68c-.31,0-.56-.25-.56-.56V30.58c0-.31,.25-.56,.56-.56s.56,.25,.56,.56v38.53c0,.31-.25,.56-.56,.56Z"/>
  <g>
    <path d="M91.22,64.17h-1.79l-3.34-7.73c-.44-1.02-1.44-1.67-2.55-1.67h-6.67v-5.39l2.9,2.9c1.08,1.08,2.84,1.08,3.93,0,.52-.52,.81-1.22,.81-1.96s-.29-1.44-.81-1.96l-7.64-7.64c-.8-.8-1.99-1.03-3.03-.6-1.04,.43-1.71,1.44-1.71,2.57v14.87c0,1.53,1.25,2.78,2.78,2.78h7.62l3.34,7.73c.44,1.02,1.44,1.67,2.55,1.67h3.62c1.53,0,2.78-1.25,2.78-2.78s-1.25-2.78-2.78-2.78Zm0,4.44h-3.62c-.66,0-1.26-.39-1.52-1l-3.49-8.06c-.09-.2-.29-.34-.51-.34h-7.99c-.92,0-1.66-.74-1.66-1.66v-14.87c0-.67,.4-1.28,1.02-1.53,.21-.09,.42-.13,.64-.13,.43,0,.85,.17,1.17,.49l7.64,7.64c.31,.31,.49,.73,.49,1.17s-.17,.86-.49,1.17c-.65,.65-1.7,.65-2.35,0l-3.85-3.85c-.16-.16-.4-.21-.61-.12-.21,.09-.34,.29-.34,.52v7.3c0,.31,.25,.56,.56,.56h7.23c.66,0,1.26,.39,1.52,1l3.49,8.06c.09,.2,.29,.34,.51,.34h2.16c.92,0,1.66,.74,1.66,1.66s-.74,1.66-1.66,1.66Z"/>
    <path d="M74.09,38.77c2.4,0,4.36-1.96,4.36-4.36s-1.96-4.36-4.36-4.36-4.36,1.96-4.36,4.36,1.96,4.36,4.36,4.36Zm0-7.6c1.79,0,3.24,1.45,3.24,3.24s-1.45,3.24-3.24,3.24-3.24-1.45-3.24-3.24,1.45-3.24,3.24-3.24Z"/>
    <path d="M65.26,51.69c-1.02,1.46-1.56,3.17-1.56,4.95,0,2.31,.9,4.48,2.53,6.11,1.63,1.63,3.8,2.53,6.11,2.53,1.23,0,2.42-.25,3.53-.75,1.08-.48,2.03-1.17,2.83-2.04,.21-.23,.19-.58-.03-.79-.23-.21-.58-.19-.79,.03-.7,.76-1.53,1.36-2.46,1.78-.97,.43-2,.65-3.07,.65-2.01,0-3.9-.78-5.32-2.21-1.42-1.42-2.21-3.31-2.21-5.32,0-1.55,.47-3.04,1.36-4.31,.87-1.24,2.07-2.18,3.48-2.72,.29-.11,.43-.43,.32-.72-.11-.29-.43-.43-.72-.32-1.62,.62-3,1.7-3.99,3.12Z"/>
    <path d="M81.15,64.75c-1.11,1.2-2.43,2.15-3.91,2.82-1.54,.69-3.19,1.04-4.89,1.04s-3.18-.32-4.66-.94c-1.43-.6-2.7-1.47-3.8-2.56-1.1-1.1-1.96-2.38-2.56-3.8-.62-1.48-.94-3.04-.94-4.66,0-2.47,.75-4.84,2.16-6.86,1.38-1.97,3.29-3.46,5.52-4.32,.29-.11,.43-.43,.32-.72-.11-.29-.43-.43-.72-.32-2.44,.94-4.53,2.57-6.04,4.72-1.54,2.2-2.36,4.8-2.36,7.5,0,1.77,.35,3.48,1.03,5.09,.66,1.56,1.6,2.96,2.8,4.16s2.6,2.14,4.16,2.8c1.61,.68,3.33,1.03,5.09,1.03,1.86,0,3.66-.38,5.34-1.14,1.63-.73,3.07-1.76,4.28-3.08,.21-.23,.19-.58-.03-.79-.23-.21-.58-.19-.79,.03Z"/>
  </g>
  <g>
    <path d="M13.32,38.73c2.39,0,4.33-1.94,4.33-4.33s-1.94-4.33-4.33-4.33-4.33,1.94-4.33,4.33,1.94,4.33,4.33,4.33Zm0-7.54c1.77,0,3.21,1.44,3.21,3.21s-1.44,3.21-3.21,3.21-3.21-1.44-3.21-3.21,1.44-3.21,3.21-3.21Z"/>
    <path d="M18.32,39.65H8.33c-1.28,0-2.33,1.04-2.33,2.33v11.21c0,1.09,.89,1.97,1.97,1.97h.86v12.63c0,1.21,.98,2.19,2.19,2.19h4.62c1.21,0,2.19-.98,2.19-2.19v-12.63h.86c1.09,0,1.97-.89,1.97-1.97v-11.21c0-1.28-1.04-2.33-2.33-2.33Zm1.21,13.54c0,.47-.38,.86-.86,.86h-.86v-9.93c0-.31-.25-.56-.56-.56s-.56,.25-.56,.56v23.68c0,.59-.48,1.07-1.07,1.07h-1.75v-14.26c0-.31-.25-.56-.56-.56s-.56,.25-.56,.56v14.26h-1.75c-.59,0-1.07-.48-1.07-1.07v-23.68c0-.31-.25-.56-.56-.56s-.56,.25-.56,.56v9.93h-.86c-.47,0-.86-.38-.86-.86v-11.21c0-.67,.54-1.21,1.21-1.21h10c.67,0,1.21,.54,1.21,1.21v11.21Z"/>
  </g>
  <g>
    <path d="M41.82,38.73c2.39,0,4.33-1.94,4.33-4.33s-1.94-4.33-4.33-4.33-4.33,1.94-4.33,4.33,1.94,4.33,4.33,4.33Zm0-7.54c1.77,0,3.21,1.44,3.21,3.21s-1.44,3.21-3.21,3.21-3.21-1.44-3.21-3.21,1.44-3.21,3.21-3.21Z"/>
    <path d="M47.83,50.05c.35,.5,.89,.82,1.5,.88,.61,.06,1.2-.16,1.63-.59,.71-.71,.8-1.83,.21-2.64l-5.1-7.04c-.46-.63-1.19-1.01-1.97-1.01h-4.54c-.78,0-1.52,.38-1.97,1.01l-5.1,7.04c-.59,.82-.51,1.93,.21,2.64,.43,.43,1.02,.65,1.63,.59,.61-.06,1.15-.37,1.5-.88l2.22-3.23v.4l-4.16,10.78c-.07,.17-.04,.37,.06,.52,.1,.15,.28,.24,.46,.24h3.28v9.12c0,.99,.8,1.79,1.79,1.79h4.72c.99,0,1.79-.8,1.79-1.79v-9.12h3.28c.18,0,.36-.09,.46-.24,.1-.15,.13-.35,.06-.52l-4.16-10.78v-.4l2.22,3.23Zm-3.3-2.52l3.9,10.12h-3.02c-.31,0-.56,.25-.56,.56v9.68c0,.37-.3,.67-.67,.67h-1.8v-10.35c0-.31-.25-.56-.56-.56s-.56,.25-.56,.56v10.35h-1.8c-.37,0-.67-.3-.67-.67v-9.68c0-.31-.25-.56-.56-.56h-3.02l3.9-10.12c.02-.06,.04-.13,.04-.2v-2.3c0-.24-.16-.46-.39-.53-.23-.07-.49,.01-.63,.22l-3.24,4.7c-.16,.23-.4,.37-.68,.4-.28,.03-.54-.07-.74-.27-.32-.32-.36-.83-.09-1.2l5.1-7.04c.25-.34,.65-.55,1.07-.55h4.54c.42,0,.82,.2,1.07,.55l5.1,7.04c.27,.37,.23,.88-.09,1.2-.2,.2-.46,.29-.74,.27-.27-.03-.52-.17-.68-.4l-3.24-4.7c-.14-.2-.39-.29-.63-.22-.23,.07-.39,.29-.39,.53v2.3c0,.07,.01,.14,.04,.2Z"/>
  </g>
</svg>
