<svg xmlns="http://www.w3.org/2000/svg" viewBox="0 0 100 125" x="0px" y="0px"><path d="M55.14,69.86c.31,0,.56-.25,.56-.56V30.7c0-.31-.25-.56-.56-.56s-.56,.25-.56,.56v38.59c0,.31,.25,.56,.56,.56Z"/><path d="M26.27,69.86c.31,0,.56-.25,.56-.56V30.7c0-.31-.25-.56-.56-.56s-.56,.25-.56,.56v38.59c0,.31,.25,.56,.56,.56Z"/><g><path d="M93.72,64.11l-3.05-5.84-.03-.06c-1.09-1.85-2.11-2.89-3.39-3.48-1.26-.58-2.48-.58-3.88-.58h-5.16v-5.76h4.69c1.34,0,2.43-1.09,2.43-2.43h0c0-1.34-1.09-2.43-2.43-2.43h-4.69v-1.47c0-1.34-1.09-2.43-2.43-2.43s-2.43,1.09-2.43,2.43v14.18c0,1.53,1.24,2.76,2.76,2.76h7.26c.87,0,1.55,0,1.84,.14,.2,.09,.58,.43,1.21,1.49l2.99,5.72c.62,1.19,2.09,1.65,3.28,1.03h0c1.19-.62,1.65-2.09,1.03-3.28Z"/><path d="M70.23,66.42c-5.29,0-9.6-4.31-9.6-9.6s4.31-9.6,9.6-9.6c.26,0,.51,.01,.76,.03v-2.43c-.25-.02-.51-.02-.76-.02-6.63,0-12.02,5.39-12.02,12.03s5.39,12.03,12.02,12.03c5.02,0,9.34-3.1,11.13-7.48h-2.68c-1.62,3-4.8,5.05-8.45,5.05Z"/><circle cx="75.79" cy="33.87" r="3.39"/></g><g><path d="M47.05,40.92c-.14-.59-.66-1-1.27-1h-9.29c-.6,0-1.13,.41-1.27,1l-2.59,10.67c.03,.51,.46,.92,.98,.92,.37,0,.69-.21,.86-.51l.12-.46h0c0-.06,0-.1,.02-.15l2.03-8.1c.08-.32,.41-.52,.73-.44,.32,.08,.52,.41,.44,.73v.02c.02,.1,.03,.2,0,.31l-2.02,7.82c-.02,.24-.08,.48-.18,.69l-.77,3h2.38c.33,0,.6,.27,.6,.6v11.71c0,.75,.61,1.36,1.36,1.36s1.36-.61,1.36-1.36v-11.71c0-.33,.27-.6,.6-.6s.6,.27,.6,.6v11.71c0,.75,.61,1.36,1.36,1.36s1.36-.61,1.36-1.36v-11.71c0-.33,.27-.6,.6-.6h2.38l-.77-3c-.1-.22-.16-.45-.18-.69l-2.02-7.82c-.03-.11-.02-.21,0-.31v-.02c-.08-.32,.11-.65,.43-.73,.32-.08,.65,.12,.73,.44l2.03,8.1s.02,.1,.02,.15h0l.12,.47c.17,.3,.49,.51,.86,.51,.52,0,.94-.41,.98-.92l-2.59-10.67Z"/><circle cx="41.13" cy="33.87" r="3.39"/></g><g><path d="M17.65,39.93H7.31c-.72,0-1.31,.59-1.31,1.31v10.3c0,.54,.44,.98,.98,.98s.98-.44,.98-.98v-8.1c0-.33,.27-.6,.6-.6s.6,.27,.6,.6v24.29c0,.75,.61,1.36,1.36,1.36s1.36-.61,1.36-1.36v-11.71c0-.33,.27-.6,.6-.6s.6,.27,.6,.6v11.71c0,.75,.61,1.36,1.36,1.36s1.36-.61,1.36-1.36v-24.29c0-.33,.27-.6,.6-.6s.6,.27,.6,.6v8.1c0,.54,.44,.98,.98,.98s.98-.44,.98-.98v-10.3c0-.72-.59-1.31-1.31-1.31Z"/><circle cx="12.48" cy="33.87" r="3.39"/></g><text x="0" y="115" fill="#000000" font-size="5px" font-weight="bold" font-family="'Helvetica Neue', Helvetica, Arial-Unicode, Arial, Sans-serif">Created by Langtik</text><text x="0" y="120" fill="#000000" font-size="5px" font-weight="bold" font-family="'Helvetica Neue', Helvetica, Arial-Unicode, Arial, Sans-serif">from the Noun Project</text></svg>