<svg xmlns="http://www.w3.org/2000/svg" version="1.1" viewBox="-5.0 -10.0 110.0 135.0">
 <path d="m97.012 77.734-0.30859-0.89844-0.16016-0.44531-0.082031-0.22266c-0.042969-0.10547-0.089844-0.21484-0.14844-0.31641-0.45703-0.82812-1.5273-1.25-2.4414-0.9375-2.4102 0.83203-4.6484 1.8281-6.9453 2.8125l-0.32422-0.76953-4.4258-10.617c-1.5-3.5312-2.957-7.0742-4.4844-10.59l-0.57422-1.3242c-0.19141-0.45703-0.44141-0.95703-0.75-1.3828-0.58984-0.88281-1.3984-1.6172-2.3242-2.1484-0.91016-0.53125-1.957-0.83984-3-0.92578-0.066407-0.003906-0.12109 0-0.18359-0.003906l-0.011719-6.7031-0.027344-3.8281c-0.015624-0.65625 0.007813-1.2383-0.035156-1.9492-0.042968-0.69922-0.1875-1.3984-0.44922-2.0508-0.98438-2.6484-3.7031-4.5117-6.5117-4.4492l-8.418 0.074219-0.007812-1.6719c0.015624-2.9844-2.0586-5.7812-4.8828-6.6602-0.51562-0.16406-1.0508-0.25-1.5898-0.29297 0-0.042969 0.015625-0.082032 0.011719-0.12109-0.019531-1.1406-0.64844-2.2344-1.6094-2.8086-0.47656-0.28906-1.0195-0.46484-1.5703-0.48438-0.53906-0.011719-0.96484 0.015625-1.4492 0.023438-1.8906 0.042969-3.7812 0.10156-5.6719 0.10547-1.8906 0.019531-3.7812 0.007812-5.6719-0.023438l-2.8359-0.03125c-0.52344-0.046875-1.1953 0.18359-1.5742 0.64844-0.19531 0.23047-0.33594 0.50781-0.40625 0.80859-0.066407 0.32422-0.042969 0.56641-0.054688 0.79297l-0.027344 1.1445-1.7227 0.007813-1.4258-5.2188-0.76562-2.7656c-0.25-0.89844-0.45703-1.8984-0.98438-2.7812-1-1.7656-2.793-3.0312-4.7812-3.3828-0.94922-0.17969-1.9258-0.14453-2.8516 0.074219-0.44141-0.44141-1.1016-0.64844-1.6992-0.46875-2.4375 0.76562-4.8398 1.4844-7.2852 2.1602-0.82422 0.22656-1.4297 1.0742-1.3633 1.9609 0.058594 0.49219 0.16797 0.71094 0.24219 1.0352l0.25391 0.91406 0.25 0.91406 0.13281 0.45703 0.066406 0.22656c0.035157 0.10547 0.074219 0.21875 0.12891 0.32031 0.39844 0.85938 1.4492 1.3477 2.3789 1.0898 2.4961-0.69922 4.8203-1.5781 7.2148-2.4414 0.66016-0.22266 1.1328-0.8125 1.2656-1.4688 0.79297-0.003906 1.5859 0.48828 1.8828 1.2266l2.9414 10.941v0.03125l-0.042968 13.48c-4.3164 1.2891-8.3164 3.6289-11.508 6.8125-4.9961 4.9727-7.9883 11.926-8.0352 19.027-0.10547 7.0938 2.7344 14.203 7.7578 19.297 4.9883 5.1172 12.09 8.1797 19.297 8.1719 7.1914 0.042969 14.406-2.8711 19.422-8.0547 2.6836-2.707 4.7383-5.9961 6.082-9.543 0.99219 0 2.0117 0.007812 3.0234-0.23438 2.457-0.51562 4.6758-1.9844 6.1172-4.0312 0.17969-0.24609 0.35156-0.50391 0.52344-0.75391-0.003906 0.10547-0.003906 0.20703-0.007812 0.3125-0.027344 0.65234 0.33594 1.293 0.89844 1.6484l-0.007812 1.2148c-0.023438 0.61719-0.082032 1.2344-0.16797 1.8438h-0.042969c-2.25 0.015625-4.4102 0.98438-6 2.5312-1.5742 1.5742-2.5742 3.7344-2.6484 6.0156-0.10156 2.2656 0.78125 4.5742 2.3828 6.2656 1.5742 1.6914 3.8828 2.75 6.2656 2.793 2.3672 0.089843 4.7812-0.92578 6.4102-2.6484 1.6484-1.707 2.6016-4.0742 2.5-6.4102-0.058593-2.3398-1.0898-4.5898-2.75-6.1602-0.30859-0.28906-0.65234-0.55078-1.0117-0.78906 0.13281-0.71875 0.23828-1.4414 0.30078-2.1719 0.027344-0.79297 0.039063-1.5742 0.058594-2.3594 0.58594-0.34766 1.0078-0.97656 1.0352-1.6758 0.035156-0.95312 0.015625-1.8867 0.003906-2.8203l4.9375 0.023438 6.0156 14.398c0.57422 1.3242 1.8242 2.3672 3.2656 2.6758 0.63672 0.14453 1.2969 0.13672 1.9297 0.003906 0.41016 0.19531 0.87891 0.25391 1.3086 0.097656 2.3828-0.92188 4.7383-1.7773 7.1367-2.5938 0.80859-0.27344 1.3672-1.1602 1.2383-2.0391-0.089843-0.48828-0.21094-0.69531-0.30859-1.0156zm-29.355 3.293c-0.25391 0.57031-0.52734 1.1172-0.82812 1.6797l-0.44922 0.84375c-0.11328 0.20703-0.26562 0.39062-0.45703 0.52734-0.76953 0.60547-2.0352 0.25-2.3789-0.67969-0.17578-0.45313-0.16016-0.95313 0.10156-1.4062 0.29688-0.56641 0.60547-1.1172 0.89844-1.7109 0.57812-1.1797 1.0156-2.4219 1.3281-3.6953 0.30859-1.2734 0.48047-2.5781 0.51953-3.8867l-0.003906-0.95312c0.27344 0.023437 0.46484 0.011718 0.71094 0.03125l0.94922 0.035156 0.94531 0.035156 0.47266 0.011719h0.019531c-0.007813 0.66016-0.007813 1.3242-0.023437 1.9766-0.1875 2.4727-0.79297 4.918-1.8047 7.1914zm-12.145-24.203-0.011719-4.0039-0.015625-3.6992c0.30859-0.007813 0.61719-0.019532 0.93359-0.019532l3.9609-0.054687c1.3203-0.019531 2.6406 0.003906 3.9609 0.011719 0.42969 0.007812 0.84375 0.019531 1.2578 0.035156-0.003906 1.4844 0 2.9688-0.015625 4.4531l-0.042969 7.2734c-0.47266 0.30859-0.80469 0.83203-0.81641 1.3984 0 0.25781-0.015625 0.50781-0.015625 0.76172-1.2852 0.59766-2.4531 1.457-3.3828 2.5352-0.86719 0.95703-1.3516 2.0742-2.207 2.7656-0.77734 0.66797-1.7734 1.0703-2.8086 1.1484 0.27344-1.582 0.42578-3.1875 0.41016-4.793-0.007812-2.6523-0.42969-5.2891-1.207-7.8125zm10.09-12.965c-1.7812-0.054687-3.5664-0.10156-5.3477-0.089844l-3.8945 0.054688c-0.30469 0.007812-0.59766 0.011719-0.89453 0.015625l-0.035156-7.6523 0.57031-0.003906 3.8281-0.019532 3.8281-0.015624c1.1484-0.089844 2.0742 0.88281 1.9258 2.0859 0.007813 1.875 0.011719 3.75 0.019531 5.625zm6.0078 18.141c-0.089844-0.48828-0.35938-0.91797-0.75-1.207 0.003906-0.73828 0.007813-1.4766 0.015625-2.2148l-0.003906-3.082c0.007812 0.003906 0.019531 0 0.027344 0.003906 0.35156 0.089844 0.66016 0.30859 0.88281 0.58984 0.19141 0.25 0.36719 0.76562 0.57422 1.207l2 4.6758c-0.91406 0.015625-1.8281 0.019532-2.7461 0.027344zm-13.613-29.914 5.8281 0.050781c2.3398-0.015625 4.5508 1.5742 5.3164 3.75 0.44531 1.0664 0.33984 2.2344 0.33984 3.5508l-0.027344 3.8281-0.027344 15.312c0 0.60938 0.007813 1.2266 0.007813 1.8398-0.12891 0.007812-0.25391 0.015625-0.39062 0.015625l-0.94922 0.039062c-0.59766 0.035156-1.1211 0.027344-1.7734 0.082032l-0.039062-7.0078c-0.050781-5.1055-0.023438-10.207 0.003906-15.312 0.058594-0.62109-0.12109-1.4961-0.64844-2.0195-0.48438-0.5625-1.3008-0.84766-1.9883-0.80859l-3.8281-0.015625-3.8281-0.019531-0.57422-0.003906-0.015625-3.3047zm-35.332-6.793c0-0.03125-0.015624-0.074219-0.015624-0.10156-1.0312-3.6914-1.9688-7.3398-3.0586-11.09-0.41016-0.95703-1.4141-1.6133-2.4531-1.6172-0.078125-0.43359-0.20703-0.64844-0.30078-0.95312l-0.32031-0.89453c-0.20312-0.53125-0.35547-1.0117-0.57422-1.5742 0.76562-0.14453 1.5547-0.17188 2.3125-0.019531 1.7812 0.33984 3.3828 1.4688 4.2656 3.043 0.45703 0.78125 0.64844 1.6758 0.89844 2.6172l0.75 2.7656 1.4688 5.5312c0.042969 0.17578 0.20703 0.30859 0.39844 0.30859l2.1133 0.007812c0.17578 0.46875 0.59766 0.88672 1.1289 0.94141l2.9023 0.089844 5.6719 0.11328c1.8906 0.035156 3.7812 0.054687 5.6719 0.015624l2.8359-0.066406c0.26562-0.011718 0.40234 0 0.77734-0.03125 0.33594-0.042968 0.66016-0.17188 0.93359-0.36328 0.21484-0.14844 0.38281-0.35156 0.52344-0.56641 0.54297 0.027343 1.0742 0.12109 1.5977 0.28906 2.3672 0.76562 4.1016 3.1602 4.043 5.6484l-0.11719 23.441v0.46875c-0.77344-1.6523-1.7109-3.2227-2.7969-4.6875l-0.027343-9.4141-0.03125-5.8672-0.015625-2.9258c-0.015625-0.51562 0.042968-0.91016-0.058594-1.6016-0.13281-0.61719-0.45703-1.1914-0.94141-1.5898-0.46875-0.42578-1.0742-0.67578-1.6914-0.71875-0.60156-0.03125-1.0156 0-1.5312-0.015626l-8.7773 0.046876-11.734 0.042968c-0.30859 0-0.55859 0.25-0.55859 0.55859l0.042969 10.816c-1.1133 0.14844-2.2109 0.375-3.293 0.66016zm27.277 5.1055-0.003906 0.76953-11.359 0.070312-11.516-0.007812 0.011719-3.5508 11.176 0.042968 5.8516 0.03125 2.9297-0.003906 1.4258 0.015625c0.33984 0.03125 0.67578 0.17578 0.94141 0.41016 0.26562 0.23438 0.44141 0.54297 0.51562 0.88281 0.042969 0.27734 0.015626 0.86719 0.027344 1.3398zm-22.879 1.4922 11.25-0.007813 11.621 0.074219-0.007813 1.3672-0.03125 5.8672-0.011719 7.6406c-0.41797-0.46875-0.83203-0.94531-1.2812-1.3828-5.0664-4.9961-12.121-7.8242-19.184-7.7773-0.79297 0-1.5859 0.050781-2.375 0.125zm20.293 50.684c-4.75 4.6484-11.273 7.4297-17.941 7.4297-6.6484 0.054688-13.297-2.5742-18.074-7.2891-4.8086-4.6719-7.6562-11.309-7.7031-18.074-0.089844-6.7539 2.6133-13.543 7.4492-18.336 4.7734-4.8555 11.555-7.5977 18.336-7.5469 6.793-0.007812 13.484 2.8516 18.188 7.6875 4.7344 4.8047 7.4297 11.484 7.3477 18.188-0.039062 6.7031-2.8438 13.289-7.6016 17.941zm16.16-12.707c-1.3516 1.8984-3.4414 3.2344-5.7188 3.6914-0.84375 0.19922-1.7148 0.19922-2.6094 0.19141 0.38672-1.1211 0.71875-2.2578 0.96094-3.4141 1.2852-0.035157 2.5703-0.51953 3.5625-1.3516 1.043-0.85156 1.5742-2.043 2.3398-2.8398 0.74219-0.83984 1.6484-1.5273 2.6406-2.043-0.011718 1.4414-0.039062 2.8789-0.082031 4.3125-0.42188 0.48047-0.73047 0.97266-1.0938 1.4531zm6.8984 8.0312c1.3086 1.3984 2 3.3086 1.9258 5.1602-0.074219 1.8516-0.85156 3.6602-2.1758 4.9102-1.3242 1.25-3.0898 1.9688-4.9102 2.0312-1.8242 0.042969-3.6758-0.61719-5.043-1.8984-1.3828-1.2812-2.2344-3.1172-2.3086-5.043-0.089844-1.9258 0.63281-3.9258 2.043-5.3242 1.3281-1.3828 3.2344-2.1172 5.1367-2.1172-0.050781 0.24609-0.085937 0.49609-0.14844 0.73828-0.25 0.96875-0.60156 1.9062-1.0078 2.8203-0.59766 0.1875-1.1445 0.51953-1.5977 0.96094-0.70703 0.69141-1.1758 1.6484-1.2188 2.6758-0.058594 1.0312 0.32422 2.0898 1.043 2.8672 0.70703 0.78125 1.7656 1.293 2.8516 1.3242 1.1016 0.042969 2.2188-0.42578 2.9688-1.2188 0.75-0.79297 1.1758-1.8984 1.1172-2.9688-0.019532-0.48047-0.16016-0.94531-0.35156-1.3867 0.5625-1.2305 1.0078-2.5156 1.3398-3.8281 0.10938 0.09375 0.23438 0.18359 0.33594 0.29688zm15.809 5.3359c-1.1484-0.23438-2.1602-1.043-2.6602-2.1172l-6.2344-14.516c-0.058594-0.13281-0.19141-0.21875-0.33984-0.21875l-5.1836 0.023438c-0.023438-1.1133-0.0625-2.2305-0.10547-3.3477 1.168 0.011718 2.3438 0.03125 3.4961 0.03125 0.074219 0 0.14844-0.015625 0.21875-0.042969 0.28125-0.11719 0.42578-0.45703 0.29297-0.73438l-2.2656-5.4688c-0.21875-0.44141-0.30859-0.89844-0.69141-1.457-0.38281-0.51562-0.91016-0.88281-1.5312-1.0586-0.10547-0.035156-0.23047-0.050781-0.35156-0.066406l-0.003907-2.9492h0.0625c0.86719 0.074219 1.6914 0.33984 2.4414 0.76562 0.73437 0.44141 1.3672 1.043 1.8398 1.75 0.25 0.36719 0.42578 0.73438 0.60156 1.1484l0.55859 1.3398c1.457 3.543 3 7.0586 4.4844 10.59l4.5312 10.574 0.49609 1.1484c-0.21875 0.39062-0.3125 0.85156-0.22266 1.2891 0.10938 0.46875 0.25391 0.67188 0.37109 0.98047l0.375 0.87109c0.23828 0.52344 0.41797 1 0.68359 1.5547-0.28516-0.003907-0.57813-0.03125-0.86328-0.089844z"/>
 <path d="m44.711 49.344c-4.0312-3.9883-9.6641-6.2578-15.293-6.1875-5.6289 0.027344-11.191 2.3516-15.125 6.3555-3.9375 3.9805-6.3008 9.4961-6.3125 15.125-0.054688 5.6211 2.2305 11.223 6.2109 15.227 3.9531 4.0273 9.5508 6.4023 15.227 6.418 5.6719 0.058594 11.336-2.2422 15.379-6.2617 4.0938-3.9805 6.4141-9.6836 6.375-15.379 0.007813-5.7109-2.4141-11.336-6.4609-15.297zm-10.262 4.9727c-1.5703 0-2.8438 1.2773-2.8438 2.8438 0 1.1641 0.70312 2.1641 1.707 2.6055l-1.8984 1.8477c-0.39062-0.28125-0.82031-0.48828-1.2734-0.60938l-0.125-8.9961h11.27l-2.3711 2.3086zm8.3359-2.3086h2.7031c0.56641 0.73438 1.0742 1.5078 1.5312 2.3086h-6.4844zm-12.848-5.6875-0.03125-2.2812c3.0508 0.09375 6.0508 0.89453 8.7461 2.2812zm-1.0469 0h-1.8789l0.007812-2.1758c0.63281-0.070312 1.2695-0.10547 1.9062-0.11328zm-2.8438 2.5312v1.8086c-0.015625 0.58984 0.058594 1.2656-0.058594 1.6758-0.23438 0.92578-1.3984 1.4688-2.2656 1.0312-0.42578-0.19141-0.78125-0.58984-0.91016-1.043-0.11719-0.41016-0.042969-1.1016-0.058594-1.6758l-0.015625-3.6328-0.011719-1.9062c1.0781-0.36719 2.1836-0.64062 3.3086-0.82422zm-4.0898 3.7227c0.19141 0.70703 0.70703 1.3086 1.3828 1.6172 1.3398 0.69141 3.1602-0.13281 3.543-1.6016 0.050782-0.20703 0.078126-0.39844 0.09375-0.58203h1.832l-0.125 8.9102c-0.51953 0.070312-1.0117 0.24609-1.4492 0.50781l-12.102-11.762c1.9453-1.8477 4.25-3.293 6.7461-4.2578l-0.011718 1.6094-0.015626 3.6328c0.046876 0.61719-0.070312 1.1445 0.10547 1.9258zm4.1641 9.8086c-0.36719 0.44141-0.63281 0.96484-0.76562 1.5273l-16.59 0.23438c0.082031-5.0859 2.1094-10.129 5.6719-13.789zm-0.82422 2.9844c0.085937 0.58984 0.31641 1.1562 0.67969 1.6602l-11.844 11.352c-3.2773-3.5938-5.2266-8.3633-5.3594-13.246zm1.7578 2.6797c0.47656 0.30078 1.0234 0.50391 1.5977 0.57812l-0.33203 16.434c-4.6328-0.21094-9.1602-2.0508-12.641-5.1484zm3.1133 0.47266c0.49609-0.13672 0.96484-0.36719 1.375-0.6875l11.461 11.934c-3.4062 3.1094-7.8789 5.0039-12.504 5.2773zm2.3789-1.8125c0.23828-0.41016 0.41797-0.85156 0.48828-1.3164l16.68 0.33594c-0.25391 4.6016-2.1328 9.043-5.1836 12.492zm0.41406-2.8164c-0.10938-0.44141-0.30469-0.84766-0.55078-1.2227l2.5898-2.6602h14.242c0.26562 1.1641 0.42578 2.3516 0.48437 3.543z"/>
<text x="0.0" y="117.5" font-size="5.0" font-weight="bold" font-family="Arbeit Regular, Helvetica, Arial-Unicode, Arial, Sans-serif" fill="#000000">Created by IconsHome</text><text x="0.0" y="122.5" font-size="5.0" font-weight="bold" font-family="Arbeit Regular, Helvetica, Arial-Unicode, Arial, Sans-serif" fill="#000000">from Noun Project</text></svg>