<svg xmlns="http://www.w3.org/2000/svg" viewBox="0 0 24 24" fill="black">
  <g transform="translate(2, 2) scale(0.17)">
    <path d="m52.219 19.559v-6.3203c0-0.35547 0.28516-0.64062 0.64062-0.64062h19.094v-1.9258c0-0.58594 0.72266-0.86328 1.1133-0.43359l5.2344 5.7305c0.22266 0.24219 0.22266 0.62109 0 0.86328l-5.2344 5.7266c-0.38672 0.42969-1.1133 0.15234-1.1133-0.42969v-1.9297h-19.094c-0.35547 0-0.64062-0.28906-0.64062-0.64062zm-39.402-4.6914c-0.87891-3.0039 0.042969-5.2383 0.97266-6.582 1.4492-2.0938 3.9883-3.5312 6.6445-3.7656 1.8125-0.80078 3.7969-0.58984 5.2148 0.55859 1.3047 1.0625 1.8906 2.707 1.6094 4.4609 0.41406 0.40234 0.67969 0.90234 0.9375 1.3867 1.1211 2.1172 1.6016 1.6094 1.793 2.2031 1.3516 4.1523-0.27734 8.4219-3.6367 9.5156-1.3516 0.44141-2.793 0.30078-4.1094-0.29688-1.8555 1.7109-3.5586 2.3555-6.3359 1.8203-0.23438-0.042969-0.42578-0.21875-0.49219-0.44922zm10.207 6.4219c0.99219 0.39453 1.9961 0.44141 2.9336 0.13672 2.6328-0.85938 3.8984-4.2773 2.8828-7.6875-1.3242-0.91016-1.582-2.043-2.2031-2.9531-0.73828 0.84375-2.0469 1.7617-3.4883 2.2773 0.88672 3.0859 1.4258 5.2773-0.125 8.2266zm75.656 64.312v9.7188c0 0.35547-0.28516 0.64063-0.64063 0.64063l-96.086 0.003906c-0.79297 0-0.86719-1.1758-0.078125-1.2773l24.039-3.0312c-3.3594-0.44531-6.5469-1.7969-9.2617-3.9766-9.4805-7.6094-9.3477-22.012 0.17969-29.48l-6.5742-20.773-4.3906 0.40625c-0.83984 0.078125-0.96094-1.1992-0.12109-1.2734l4.9062-0.45312c0.30078-0.03125 0.57812 0.15625 0.66797 0.44531l0.58984 1.8594c1.4961-1.6602 4.1836-2.7266 6.2852-1.8789-0.41797-1.9141-0.65234-3.2773-0.65625-3.3203-0.47266-2.9727 1.4219-7.1406 4.8984-8.375 2.1602-0.76563 4.1016-0.6875 5.7812 0.23828 4.832 2.6562 6.0664 11.238 7.4531 16.621l2.6211-0.039062c1.7188 0.078125 3.7227 0.89062 3.8867 4.1758l4.2305-0.46484c1.6055-0.17578 3.0586 0.98828 3.2344 2.5938 0.082031 0.75391-0.12891 1.5-0.59375 2.1055 3.8047 0.46484 10.145 0.96875 12.633 1.9375 2.1523 0.83594 3.6797 2.8984 3.9805 5.375l2.6328 21.656c0.046875 0.37109-0.28125 0.67188-0.55469 0.96094l0.73047-0.082032c0.83594-0.089843 0.98438 1.1797 0.14453 1.2734l-9.625 1.0703c1.5039 1.3906 1.5703 3.7031 0.20703 5.1875l19.707-2.4844 19.133 0.003906c0.35547 0 0.64063 0.28516 0.64063 0.63672zm-56.332-13.477-9.4336 1.0352c-0.027343 0.76953-0.24609 1.5-0.625 2.1367l7.3984 5.9375c1.8672-2.5547 2.875-5.7461 2.6602-9.1094zm-4.707-9.5898-5.9414 7.4062c0.50781 0.53906 0.87891 1.2031 1.0703 1.9492l9.4375-1.0352c-0.5-3.2422-2.1016-6.1562-4.5664-8.3203zm-0.99609-0.80078c-2.4023-1.7539-5.25-2.6836-8.1992-2.6836-0.30469 0-0.60937 0.011719-0.91016 0.03125l1.0352 9.4336c0.76953 0.027344 1.5 0.24609 2.1328 0.625zm-13.688-28 2.4844 9.7695c0.085938 0.33594 0.42578 0.54297 0.76172 0.46484l8.4297-1.4141c0.83203-0.14063 0.62109-1.3984-0.21094-1.2617l-7.8867 1.3203-2.3398-9.1992c-0.20312-0.80859-1.4453-0.49609-1.2383 0.32031zm-4.5352 5.2539 3.2812 10.891c0.09375 0.32031 0.42188 0.51172 0.74219 0.44531l15.75-2.6367c0.83203-0.14062 0.62109-1.3984-0.21094-1.2617l-15.219 2.5508-3.1211-10.348c-0.23828-0.8125-1.4648-0.44531-1.2227 0.35938zm-0.47656 24.801 7.3984 5.9336c0.55078-0.51562 1.2188-0.88281 1.9492-1.0703l-1.0352-9.4336c-3.3281 0.51953-6.2227 2.1953-8.3125 4.5703zm-3.457 10.105 9.4336-1.0352c0.023437-0.75391 0.23828-1.4844 0.62109-2.1367l-7.3945-5.9336c-1.8672 2.5547-2.875 5.7422-2.6602 9.1055zm4.707 9.5898 5.9375-7.3984c-0.51953-0.55078-0.88281-1.2188-1.0703-1.9531l-9.4297 1.0352c0.51563 3.332 2.1914 6.2266 4.5625 8.3164zm10.105 3.457-1.0352-9.4297c-0.75781-0.023438-1.4883-0.23438-2.1406-0.62109l-5.9336 7.3945c2.5586 1.8633 5.7461 2.8711 9.1094 2.6562zm1.2773-0.14062c3.3281-0.51953 6.2227-2.1953 8.3125-4.5703l-7.3984-5.9375c-0.53906 0.50391-1.2031 0.87891-1.9492 1.0703zm24.855-5.3555-3.2383-14.629-5.9453 0.21875c2.0195 6.0781 0.86719 12.715-3.1641 17.742-2.0469 2.5547-4.668 4.4844-7.6211 5.6719l19.039-2.4023c-2.5859-1.6836-2.0898-5.6836 0.92969-6.6016zm1.2656-0.21094 4.8477-0.53906c-0.21094-0.13672-0.41406-0.23047-0.47266-0.53516l-3.8633-19.258-3.9258-0.097656c0.625 1.582 0.65234 3.3828 0.082032 5.375z"/>
  </g>
</svg>