<svg xmlns="http://www.w3.org/2000/svg" viewBox="0 0 100 100" fill="black">
  <path d="M55.71,69.68c-.31,0-.56-.25-.56-.56V30.58c0-.31,.25-.56,.56-.56s.56,.25,.56,.56v38.53c0,.31-.25,.56-.56,.56Z"/>
  <path d="M26.89,69.68c-.31,0-.56-.25-.56-.56V30.58c0-.31,.25-.56,.56-.56s.56,.25,.56,.56v38.53c0,.31-.25,.56-.56,.56Z"/>
  <g>
    <path d="M91.22,64.17h-1.79l-3.34-7.73c-.44-1.02-1.44-1.67-2.55-1.67h-6.67v-5.39l2.9,2.9c1.08,1.08,2.84,1.08,3.93,0,.52-.52,.81-1.22,.81-1.96s-.29-1.44-.81-1.96l-7.64-7.64c-.8-.8-1.99-1.03-3.03-.6-1.04,.43-1.71,1.44-1.71,2.57v14.87c0,1.53,1.25,2.78,2.78,2.78h7.62l3.34,7.73c.44,1.02,1.44,1.67,2.55,1.67h3.62c1.53,0,2.78-1.25,2.78-2.78s-1.25-2.78-2.78-2.78Z"/>
    <path d="M74.09,38.77c2.4,0,4.36-1.96,4.36-4.36s-1.96-4.36-4.36-4.36-4.36,1.96-4.36,4.36,1.96,4.36,4.36,4.36Z"/>
    <path d="M65.26,51.69c-1.02,1.46-1.56,3.17-1.56,4.95,0,2.31,.9,4.48,2.53,6.11,1.63,1.63,3.8,2.53,6.11,2.53,1.23,0,2.42-.25,3.53-.75,1.08-.48,2.03-1.17,2.83-2.04,.21-.23,.19-.58-.03-.79-.23-.21-.58-.19-.79,.03-.7,.76-1.53,1.36-2.46,1.78-.97,.43-2,.65-3.07,.65-2.01,0-3.9-.78-5.32-2.21-1.42-1.42-2.21-3.31-2.21-5.32,0-1.55,.47-3.04,1.36-4.31,.87-1.24,2.07-2.18,3.48-2.72,.29-.11,.43-.43,.32-.72-.11-.29-.43-.43-.72-.32-1.62,.62-3,1.7-3.99,3.12Z"/>
  </g>
  <g>
    <path d="M13.32,38.73c2.39,0,4.33-1.94,4.33-4.33s-1.94-4.33-4.33-4.33-4.33,1.94-4.33,4.33,1.94,4.33,4.33,4.33Z"/>
    <path d="M18.32,39.65H8.33c-1.28,0-2.33,1.04-2.33,2.33v11.21c0,1.09,.89,1.97,1.97,1.97h.86v12.63c0,1.21,.98,2.19,2.19,2.19h4.62c1.21,0,2.19-.98,2.19-2.19v-12.63h.86c1.09,0,1.97-.89,1.97-1.97v-11.21c0-1.28-1.04-2.33-2.33-2.33Z"/>
  </g>
  <g>
    <path d="M41.82,38.73c2.39,0,4.33-1.94,4.33-4.33s-1.94-4.33-4.33-4.33-4.33,1.94-4.33,4.33,1.94,4.33,4.33,4.33Z"/>
    <path d="M47.83,50.05c.35,.5,.89,.82,1.5,.88,.61,.06,1.2-.16,1.63-.59,.71-.71,.8-1.83,.21-2.64l-5.1-7.04c-.46-.63-1.19-1.01-1.97-1.01h-4.54c-.78,0-1.52,.38-1.97,1.01l-5.1,7.04c-.59,.82-.51,1.93,.21,2.64,.43,.43,1.02,.65,1.63,.59,.61-.06,1.15-.37,1.5-.88l2.22-3.23v.4l-4.16,10.78c-.07,.17-.04,.37,.06,.52,.1,.15,.28,.24,.46,.24h3.28v9.12c0,.99,.8,1.79,1.79,1.79h4.72c.99,0,1.79-.8,1.79-1.79v-9.12h3.28c.18,0,.36-.09,.46-.24,.1-.15,.13-.35,.06-.52l-4.16-10.78v-.4l2.22,3.23Z"/>
  </g>
</svg>