<svg xmlns="http://www.w3.org/2000/svg" viewBox="0 0 32 32" fill="black">
  <g transform="translate(-94,-346)">
    <path d="M117.744,369.436L117.744,365.9L111.028,365.9C111.273,366.628 111.405,367.407 111.405,368.217C111.405,372.237 108.142,375.5 104.123,375.5C100.103,375.5 96.84,372.237 96.84,368.217C96.84,364.86 99.117,362.03 102.21,361.189L102.21,352.301L99.601,352.301C99.325,352.301 99.101,352.077 99.101,351.801L99.101,350C99.101,349.602 99.259,349.221 99.54,348.939C99.822,348.658 100.203,348.5 100.601,348.5L103.536,348.5C104.916,348.5 106.036,349.619 106.036,351L106.036,354.152L116.688,354.152C117.086,354.152 117.467,354.31 117.748,354.592C118.03,354.873 118.188,355.254 118.188,355.652L118.188,356.597C118.188,357.067 117.688,357.111 117.688,357.111L115.82,357.111L118.013,362.065L119.079,362.065C119.742,362.065 120.378,362.329 120.847,362.797C121.316,363.266 121.579,363.902 121.579,364.565L121.579,369.419C122.438,370.02 123,371.017 123,372.145C123,373.98 121.51,375.471 119.674,375.471C117.838,375.471 116.348,373.98 116.348,372.145C116.348,371.028 116.899,370.039 117.744,369.436ZM104.123,361.935C100.655,361.935 97.84,364.75 97.84,368.217C97.84,371.685 100.655,374.5 104.123,374.5C107.59,374.5 110.405,371.685 110.405,368.217C110.405,364.75 107.59,361.935 104.123,361.935ZM104.123,363.174C106.906,363.174 109.166,365.434 109.166,368.217C109.166,371.001 106.906,373.261 104.123,373.261C101.339,373.261 99.079,371.001 99.079,368.217C99.079,365.434 101.339,363.174 104.123,363.174ZM104.123,364.174C101.891,364.174 100.079,365.986 100.079,368.217C100.079,370.449 101.891,372.261 104.123,372.261C106.354,372.261 108.166,370.449 108.166,368.217C108.166,365.986 106.354,364.174 104.123,364.174ZM104.123,366.587C105.022,366.587 105.753,367.318 105.753,368.217C105.753,369.117 105.022,369.848 104.123,369.848C103.223,369.848 102.492,369.117 102.492,368.217C102.492,367.318 103.223,366.587 104.123,366.587Z"/>
  </g>
</svg>